<?xml version="1.0" encoding="us-ascii" standalone="no"?><svg xmlns="http://www.w3.org/2000/svg" xmlns:xlink="http://www.w3.org/1999/xlink" contentStyleType="text/css" height="394px" preserveAspectRatio="none" style="width:411px;height:394px;background:#FFFFFF;" version="1.1" viewBox="0 0 411 394" width="411px" zoomAndPan="magnify"><defs/><g><rect fill="#FFFFFF" height="63.2656" style="stroke:#181818;stroke-width:1.0;" width="10" x="171.5" y="118.5625"/><rect fill="#FFFFFF" height="87.3984" style="stroke:#181818;stroke-width:1.0;" width="10" x="171.5" y="254.0938"/><rect fill="#FFFFFF" height="58.2656" style="stroke:#181818;stroke-width:1.0;" width="10" x="359.5" y="254.0938"/><line style="stroke:#181818;stroke-width:0.5;stroke-dasharray:5.0,5.0;" x1="56" x2="56" y1="36.2969" y2="359.4922"/><line style="stroke:#181818;stroke-width:0.5;stroke-dasharray:5.0,5.0;" x1="176.5" x2="176.5" y1="36.2969" y2="359.4922"/><line style="stroke:#181818;stroke-width:0.5;stroke-dasharray:5.0,5.0;" x1="364.5" x2="364.5" y1="36.2969" y2="359.4922"/><rect fill="#E2E2F0" height="30.2969" rx="2.5" ry="2.5" style="stroke:#181818;stroke-width:0.5;" width="103" x="5" y="5"/><text fill="#000000" font-family="sans-serif" font-size="14" lengthAdjust="spacing" textLength="89" x="12" y="24.9951">&#19994;&#21153;&#31995;&#32479;WEB</text><rect fill="#E2E2F0" height="30.2969" rx="2.5" ry="2.5" style="stroke:#181818;stroke-width:0.5;" width="103" x="5" y="358.4922"/><text fill="#000000" font-family="sans-serif" font-size="14" lengthAdjust="spacing" textLength="89" x="12" y="378.4873">&#19994;&#21153;&#31995;&#32479;WEB</text><rect fill="#E2E2F0" height="30.2969" rx="2.5" ry="2.5" style="stroke:#181818;stroke-width:0.5;" width="70" x="141.5" y="5"/><text fill="#000000" font-family="sans-serif" font-size="14" lengthAdjust="spacing" textLength="56" x="148.5" y="24.9951">&#19994;&#21153;&#31995;&#32479;</text><rect fill="#E2E2F0" height="30.2969" rx="2.5" ry="2.5" style="stroke:#181818;stroke-width:0.5;" width="70" x="141.5" y="358.4922"/><text fill="#000000" font-family="sans-serif" font-size="14" lengthAdjust="spacing" textLength="56" x="148.5" y="378.4873">&#19994;&#21153;&#31995;&#32479;</text><rect fill="#E2E2F0" height="30.2969" rx="2.5" ry="2.5" style="stroke:#181818;stroke-width:0.5;" width="70" x="329.5" y="5"/><text fill="#000000" font-family="sans-serif" font-size="14" lengthAdjust="spacing" textLength="56" x="336.5" y="24.9951">&#25991;&#26723;&#20013;&#21488;</text><rect fill="#E2E2F0" height="30.2969" rx="2.5" ry="2.5" style="stroke:#181818;stroke-width:0.5;" width="70" x="329.5" y="358.4922"/><text fill="#000000" font-family="sans-serif" font-size="14" lengthAdjust="spacing" textLength="56" x="336.5" y="378.4873">&#25991;&#26723;&#20013;&#21488;</text><rect fill="#FFFFFF" height="63.2656" style="stroke:#181818;stroke-width:1.0;" width="10" x="171.5" y="118.5625"/><rect fill="#FFFFFF" height="87.3984" style="stroke:#181818;stroke-width:1.0;" width="10" x="171.5" y="254.0938"/><rect fill="#FFFFFF" height="58.2656" style="stroke:#181818;stroke-width:1.0;" width="10" x="359.5" y="254.0938"/><rect fill="#EEEEEE" height="3" style="stroke:#EEEEEE;stroke-width:1.0;" width="404.5" x="0" y="66.8633"/><line style="stroke:#000000;stroke-width:1.0;" x1="0" x2="404.5" y1="66.8633" y2="66.8633"/><line style="stroke:#000000;stroke-width:1.0;" x1="0" x2="404.5" y1="69.8633" y2="69.8633"/><rect fill="#EEEEEE" height="23.1328" style="stroke:#000000;stroke-width:2.0;" width="98" x="153.25" y="56.2969"/><text fill="#000000" font-family="sans-serif" font-size="13" font-weight="bold" lengthAdjust="spacing" textLength="84" x="159.25" y="72.3638">&#35774;&#32622;&#22238;&#35843;&#22320;&#22336;</text><line style="stroke:#181818;stroke-width:1.0;" x1="176.5" x2="223.5" y1="105.5625" y2="105.5625"/><line style="stroke:#181818;stroke-width:1.0;" x1="223.5" x2="223.5" y1="105.5625" y2="118.5625"/><line style="stroke:#181818;stroke-width:1.0;" x1="182.5" x2="223.5" y1="118.5625" y2="118.5625"/><polygon fill="#181818" points="192.5,114.5625,182.5,118.5625,192.5,122.5625,188.5,118.5625" style="stroke:#181818;stroke-width:1.0;"/><text fill="#000000" font-family="sans-serif" font-size="13" font-weight="bold" lengthAdjust="spacing" textLength="9" x="188.5" y="100.4966">1</text><text fill="#000000" font-family="sans-serif" font-size="13" lengthAdjust="spacing" textLength="150" x="201.5" y="100.4966">&#33719;&#21462;/&#37325;&#32622;&#24212;&#29992;&#20449;&#24687;ak&#21644;sk</text><polygon fill="#181818" points="352.5,148.6953,362.5,152.6953,352.5,156.6953,356.5,152.6953" style="stroke:#181818;stroke-width:1.0;"/><line style="stroke:#181818;stroke-width:1.0;" x1="181.5" x2="358.5" y1="152.6953" y2="152.6953"/><text fill="#000000" font-family="sans-serif" font-size="13" font-weight="bold" lengthAdjust="spacing" textLength="9" x="188.5" y="147.6294">2</text><text fill="#000000" font-family="sans-serif" font-size="13" lengthAdjust="spacing" textLength="146" x="201.5" y="147.6294">&#26681;&#25454;ak&#21644;sk&#35774;&#32622;&#22238;&#35843;&#22320;&#22336;</text><polygon fill="#181818" points="187.5,177.8281,177.5,181.8281,187.5,185.8281,183.5,181.8281" style="stroke:#181818;stroke-width:1.0;"/><line style="stroke:#181818;stroke-width:1.0;stroke-dasharray:2.0,2.0;" x1="181.5" x2="363.5" y1="181.8281" y2="181.8281"/><text fill="#000000" font-family="sans-serif" font-size="13" font-weight="bold" lengthAdjust="spacing" textLength="8" x="193.5" y="176.7622">3</text><text fill="#000000" font-family="sans-serif" font-size="13" lengthAdjust="spacing" textLength="78" x="205.5" y="176.7622">&#36820;&#22238;&#35831;&#27714;&#32467;&#26524;</text><rect fill="#EEEEEE" height="3" style="stroke:#EEEEEE;stroke-width:1.0;" width="404.5" x="0" y="210.3945"/><line style="stroke:#000000;stroke-width:1.0;" x1="0" x2="404.5" y1="210.3945" y2="210.3945"/><line style="stroke:#000000;stroke-width:1.0;" x1="0" x2="404.5" y1="213.3945" y2="213.3945"/><rect fill="#EEEEEE" height="23.1328" style="stroke:#000000;stroke-width:2.0;" width="126" x="139.25" y="199.8281"/><text fill="#000000" font-family="sans-serif" font-size="13" font-weight="bold" lengthAdjust="spacing" textLength="112" x="145.25" y="215.895">&#33719;&#21462;&#25991;&#20214;&#32534;&#36753;&#38142;&#25509;</text><polygon fill="#181818" points="159.5,250.0938,169.5,254.0938,159.5,258.0938,163.5,254.0938" style="stroke:#181818;stroke-width:1.0;"/><line style="stroke:#181818;stroke-width:1.0;" x1="56.5" x2="165.5" y1="254.0938" y2="254.0938"/><text fill="#000000" font-family="sans-serif" font-size="13" font-weight="bold" lengthAdjust="spacing" textLength="9" x="63.5" y="249.0278">4</text><text fill="#000000" font-family="sans-serif" font-size="13" lengthAdjust="spacing" textLength="52" x="76.5" y="249.0278">&#25171;&#24320;&#25991;&#20214;</text><polygon fill="#181818" points="347.5,279.2266,357.5,283.2266,347.5,287.2266,351.5,283.2266" style="stroke:#181818;stroke-width:1.0;"/><line style="stroke:#181818;stroke-width:1.0;" x1="181.5" x2="353.5" y1="283.2266" y2="283.2266"/><text fill="#000000" font-family="sans-serif" font-size="13" font-weight="bold" lengthAdjust="spacing" textLength="9" x="188.5" y="278.1606">5</text><text fill="#000000" font-family="sans-serif" font-size="13" lengthAdjust="spacing" textLength="104" x="201.5" y="278.1606">&#33719;&#21462;&#25991;&#20214;&#32534;&#36753;&#38142;&#25509;</text><polygon fill="#181818" points="192.5,308.3594,182.5,312.3594,192.5,316.3594,188.5,312.3594" style="stroke:#181818;stroke-width:1.0;"/><line style="stroke:#181818;stroke-width:1.0;stroke-dasharray:2.0,2.0;" x1="186.5" x2="363.5" y1="312.3594" y2="312.3594"/><text fill="#000000" font-family="sans-serif" font-size="13" font-weight="bold" lengthAdjust="spacing" textLength="9" x="198.5" y="307.2935">6</text><text fill="#000000" font-family="sans-serif" font-size="13" lengthAdjust="spacing" textLength="104" x="211.5" y="307.2935">&#36820;&#22238;&#25991;&#20214;&#32534;&#36753;&#38142;&#25509;</text><polygon fill="#181818" points="67.5,337.4922,57.5,341.4922,67.5,345.4922,63.5,341.4922" style="stroke:#181818;stroke-width:1.0;"/><line style="stroke:#181818;stroke-width:1.0;stroke-dasharray:2.0,2.0;" x1="61.5" x2="175.5" y1="341.4922" y2="341.4922"/><text fill="#000000" font-family="sans-serif" font-size="13" font-weight="bold" lengthAdjust="spacing" textLength="9" x="73.5" y="336.4263">7</text><text fill="#000000" font-family="sans-serif" font-size="13" lengthAdjust="spacing" textLength="78" x="86.5" y="336.4263">&#36820;&#22238;&#32534;&#36753;&#38142;&#25509;</text><!--SRC=[TP11Ji9058RtSugvGEEUf2nCE8Fh0MVH4Ci41jsYBeX68DYc2qMqCIPkB3Kc0XRBPJfloYsSgO1MwNBoV-z_tppIvWsxVLIbJSH8arirYn6RusHs8ovz-HR9wFwWiez92v_GQY6YSy9OBWUl2_vZCdiHWr3d3KPjX4mp3MBv6OZRSHgUYr4exZgcYTGmDigweuJJ_bGClBrLjwUv3rUwpydIXzC9gOlhgrOTaHgtZWcdsShrf6ulONYOGozOS_yN8KrXOxjewUfqCeNNCnavC1wXGvehrxgPZVfC4htBXPV6mvKJG_z9IQkBRANXmX6BpZVsHt3po0wGqotgtkcv0_jb-rDkb9NNPgW8L-GN]--></g></svg>